<?xml version="1.0" encoding="utf-8"?>
<!-- Generator: Adobe Illustrator 23.0.3, SVG Export Plug-In . SVG Version: 6.00 Build 0)  -->
<svg version="1.1" id="Global_News" xmlns="http://www.w3.org/2000/svg" xmlns:xlink="http://www.w3.org/1999/xlink" x="0px"
	 y="0px" viewBox="0 0 558 536" style="enable-background:new 0 0 558 536;" xml:space="preserve">
<style type="text/css">
	.st0{fill:#231F20;}
	.st1{fill:#F2F2F2;}
	.st2{fill:#EF2601;}
</style>
<g>
	<rect x="0.24" y="0.19" class="st0" width="557.51" height="535.62"/>
	<g>
		<g>
			<polygon class="st1" points="186.25,294.01 186.25,341.83 159.05,294.01 141.35,294.01 141.35,374.25 158.96,374.25 
				158.96,326.52 186.05,374.25 203.86,374.25 203.86,294.01 			"/>
			<polygon class="st1" points="231.56,356.88 231.56,341.23 265.59,341.23 265.59,324.86 231.56,324.86 231.56,311.63 
				268.64,311.63 268.64,294.05 213.08,294.05 213.08,374.25 269.43,374.25 269.43,356.88 			"/>
			<polygon class="st1" points="353.88,294.01 343.4,342.16 332.47,294.01 315.61,294.01 304.51,341.53 294.4,294.01 275.75,294.01 
				295.2,374.25 313.23,374.25 323.9,326.65 334.74,374.25 352.47,374.25 372.23,294.01 			"/>
			<g>
				<path class="st1" d="M370.09,345.41l-0.02,1.62c-0.07,5.01,0.78,9.41,2.54,13.09c1.75,3.67,4.14,6.74,7.11,9.12
					c2.94,2.36,6.36,4.1,10.18,5.21c3.77,1.07,7.7,1.62,11.68,1.62c4.93,0,9.34-0.64,13.12-1.9c3.83-1.29,7.09-3.11,9.69-5.43
					c2.64-2.34,4.66-5.18,6-8.41c1.33-3.23,2-6.76,2-10.51c0-4.63-0.92-8.5-2.76-11.54c-1.78-2.94-3.94-5.33-6.4-7.1
					c-2.42-1.74-4.9-3.03-7.36-3.83c-2.36-0.76-4.25-1.3-5.61-1.6c0.08,0.02-10.62-2.99-10.62-2.99c-2.63-0.76-4.7-1.53-6.16-2.28
					c-1.58-0.8-2.21-1.51-2.47-1.96c-0.37-0.67-0.56-1.61-0.56-2.81c0-1.32,0.25-2.39,0.74-3.19c0.55-0.9,1.23-1.63,2.07-2.23
					c0.86-0.6,1.83-1.03,2.9-1.29c1.14-0.26,2.3-0.39,3.44-0.39c1.8,0,3.47,0.17,4.98,0.5c1.42,0.32,2.7,0.86,3.79,1.61
					c1.04,0.72,1.86,1.69,2.49,2.96c0.65,1.29,1.04,2.98,1.16,5.03l0.08,1.54H430v-1.65c0-4.71-0.84-8.8-2.5-12.16
					c-1.65-3.34-3.91-6.11-6.72-8.27c-2.77-2.12-5.98-3.67-9.53-4.61c-3.48-0.92-7.17-1.39-10.95-1.39c-3.27,0-6.59,0.49-9.86,1.46
					c-3.31,0.98-6.32,2.52-8.96,4.56c-2.66,2.07-4.85,4.69-6.49,7.79c-1.67,3.15-2.52,6.89-2.52,11.12c0,3.78,0.67,7.07,2,9.77
					c1.31,2.67,3.06,4.94,5.2,6.73c2.07,1.74,4.46,3.17,7.09,4.27c2.55,1.07,5.2,1.97,7.87,2.7c2.54,0.78,5.11,1.52,7.61,2.16
					c2.41,0.62,4.6,1.36,6.5,2.19c1.78,0.78,3.23,1.75,4.3,2.88c0.92,0.98,1.36,2.25,1.36,3.89c0,1.57-0.34,2.8-1.05,3.76
					c-0.79,1.07-1.75,1.89-2.94,2.51c-1.23,0.64-2.59,1.08-4.02,1.31c-1.49,0.24-2.92,0.36-4.24,0.36c-1.91,0-3.78-0.25-5.56-0.75
					c-1.72-0.49-3.24-1.24-4.49-2.23c-1.22-0.96-2.22-2.23-2.96-3.79c-0.73-1.55-1.12-3.51-1.12-5.82v-1.65H370.09z"/>
			</g>
		</g>
		<g>
			<path class="st1" d="M432.36,179.06h-21.92v95.3h21.92l0,0C432.36,274.36,432.36,184.03,432.36,179.06z"/>
			<rect x="141.35" y="179.06" class="st1" width="21.92" height="95.27"/>
			<path class="st1" d="M85.91,241.85c0,0,14.36,0,21.47,0c-4.43,9.33-13.67,16.37-24.31,14.82c-8.45-1.24-15.9-7.75-19.3-15.42
				c-7.33-16.55-0.2-40.24,19-43.4c10.29-1.69,20.23,4.12,24.38,13.71c6.81,0,13.77,0,20.58,0c-2.55-15.38-13.3-28.34-29.31-32.56
				c-14.99-3.95-31.75-1.07-43.17,9.72c-21.72,20.51-20.21,63.24,5.08,80.17c14.37,9.62,36.46,11.12,49.35-1.85v7.34h18.55v-51.48
				c-8.39,0-42.3,0-42.3,0L85.91,241.85z"/>
			<path class="st1" d="M209.08,202.45c-23.27,0.06-36,16.58-36.17,36.91c-0.18,20.31,12.93,36.75,36.22,36.81
				c22.9,0.06,35.47-16.36,35.47-36.74C244.6,219.05,231.98,202.39,209.08,202.45z M209,258.68c-10.45,0-13.88-8.6-14.09-19.29
				c-0.21-10.71,3.97-19.27,14.02-19.24c9.69,0.03,13.82,8.59,13.82,19.28C222.74,250.12,218.68,258.68,209,258.68z"/>
			<polygon class="st2" points="421.4,109.77 421.4,156.82 485.09,203.83 453.24,227.34 453.24,274.36 516.94,227.34 516.94,180.32 
							"/>
			<path class="st1" d="M315.62,211.4c-9.7-10.6-28.05-12.4-38.8-2.19v-30.15H254.9v95.28h20.95c0-1.62,0-3.23,0-4.85
				c6.14,6.13,17.01,7.72,25.19,6.01c8.46-1.77,15.44-7.48,19.23-15.23C327.33,245.83,326.5,223.82,315.62,211.4z M302.05,246.93
				c-1.73,8.52-9.02,14.82-18.42,10.19c-7.69-3.78-8.44-17.2-6.69-25.29c2.36-10.94,11.81-14.25,18.75-10.47
				C303.09,225.39,303.91,238.88,302.05,246.93z"/>
			<path class="st1" d="M398.34,226.1c0-4.77-0.11-9.66-3.03-13.7c-7.8-10.77-24.75-10.9-36.59-9.23
				c-12.71,1.8-23.18,9.51-23.71,23.28l-0.04,1.46h21.88c0.15-3.62,1.08-7.37,4.74-8.62c3.43-1.17,10.4-1.59,13.32,1.32
				c1.26,1.25,1.79,3.81,1.49,5.77c-0.27,1.82-1.94,2.54-3.49,3.26c-3.46,1.59-9.12,1.39-16.14,2.59
				c-9.55,1.64-19.78,4.36-22.82,15.11c-2.85,10.06,0.37,21.34,9.84,25.89c10.1,4.85,25.18,3.56,34-3.34c0.03,0.12,0,4.46,0,4.46
				h20.56C398.34,274.36,398.36,242.19,398.34,226.1z M376.42,246.79c0,4.8-1.15,10.17-5.91,12.07c-6.57,2.63-12.2,0.85-13.84-0.74
				c-1.87-1.81-3.49-8.77,3.15-11.22c2.64-0.97,5.47-1.36,8.23-1.73c2.88-0.39,5.6-0.85,8.37-1.79
				C376.42,244.52,376.42,245.66,376.42,246.79z"/>
		</g>
	</g>
</g>
</svg>
